# xmcd
#
# Track frame offsets:
# 150
# 7882
# 22594
# 34182
# 50138
# 62168
# 74997
# 85367
# 97818
# 128890
# 138977
# 153887
# 167122
# 179965
#
# Disc length: 2591 seconds
#
#
# Revision: 0
# Processed by: cddbd v1.5.1PL0 Copyright (c) Steve Scherf et al.
# Submitted via: FreeRIP 2.80 
#
DISCID=bf0a1d0e
DTITLE=Marcela Iuga Preda - Eu voiesc lume a-ti canta
DYEAR=2004
DGENRE=populara
TTITLE0=comerciala
TTITLE1=Eu sunt mandra din Sugag
TTITLE2=Pentru toti oamenii buni
TTITLE3=Dragii mei va spun cu drag
TTITLE4=Ei, hai inima
TTITLE5=Pe marginea Crisului
TTITLE6=Pentru badea meu cel drag
TTITLE7=comerciala
TTITLE8=Trece-un dor peste Ardeal
TTITLE9=Tare dragi mi-s oameni
TTITLE10=Langa tin bade cand mor
TTITLE11=Asa e omul
TTITLE12=De la Alba Iulia in sus
TTITLE13=Bade zorile se varsa
EXTD=
EXTT0=
EXTT1=
EXTT2=
EXTT3=
EXTT4=
EXTT5=
EXTT6=
EXTT7=
EXTT8=
EXTT9=
EXTT10=
EXTT11=
EXTT12=
EXTT13=
PLAYORDER=
